<svg width="500" height="501" viewBox="0 0 500 501" fill="none" xmlns="http://www.w3.org/2000/svg">
<path d="M500 0.5H0V500.5H500V0.5Z" fill="#F25764"/>
<path d="M500 500.5V288.949C479.582 279.068 459.17 269.752 438.771 264.029C375.705 246.077 312.782 262.727 250 243.212C187.221 223.696 124.294 168.019 61.23 124.82C40.832 110.767 20.418 97.9954 0 87.6094V500.5H500Z" fill="#EA4E54"/>
<path d="M500 500.5V322.603C479.582 331.394 459.17 340.334 438.771 348.075C375.705 372.011 312.782 383.987 250 327.259C187.221 270.535 124.294 144.6 61.23 134.709C40.832 131.511 20.417 140.409 0 156.163V500.5H500Z" fill="#E34543"/>
<path d="M500 500.5V352.024C479.582 337.402 459.17 322.731 438.771 310.864C375.705 273.919 312.782 263.511 250 292.652C187.221 321.538 124.294 390.227 61.23 414.944C40.832 422.94 20.418 426.33 0 425.785V500.5H500Z" fill="#DB3F3A"/>
<path d="M500 500.5V376.594C479.582 391.48 459.17 402.904 438.771 406.105C375.705 416.248 312.782 347.556 250 346.255C187.221 344.956 124.294 411.042 61.23 447.735C40.832 459.685 20.418 468.571 0 475.172V500.5H500Z" fill="#D3372F"/>
<path d="M500 500.5V434.272C479.582 446.583 459.17 457.092 438.771 462.562C375.705 479.476 312.782 448.253 250 429.257C187.221 410.007 124.294 403.236 61.23 422.234C40.832 428.379 20.417 437.271 0 446.034V500.501H500V500.5Z" fill="#CB3024"/>
<path d="M500 500.5V473.074C479.582 471.303 459.17 469.91 438.771 469.067C375.705 466.467 312.782 469.067 250 473.487C187.221 477.655 124.294 483.899 61.23 491.704C40.832 494.229 20.417 496.923 0 499.661V500.5H500Z" fill="#C32816"/>
</svg>
