<?xml version="1.0" encoding="UTF-8" standalone="no"?>
<!-- Created with Inkscape (http://www.inkscape.org/) -->

<svg
   width="1154.1836"
   height="256.00006"
   viewBox="0 0 1154.1836 256.00006"
   version="1.1"
   id="svg1"
   xml:space="preserve"
   xmlns:inkscape="http://www.inkscape.org/namespaces/inkscape"
   xmlns:sodipodi="http://sodipodi.sourceforge.net/DTD/sodipodi-0.dtd"
   xmlns="http://www.w3.org/2000/svg"
   xmlns:svg="http://www.w3.org/2000/svg"><sodipodi:namedview
     id="namedview1"
     pagecolor="#505050"
     bordercolor="#eeeeee"
     borderopacity="1"
     inkscape:showpageshadow="0"
     inkscape:pageopacity="0"
     inkscape:pagecheckerboard="0"
     inkscape:deskcolor="#505050"
     inkscape:document-units="px" /><defs
     id="defs1" /><g
     inkscape:label="Layer 1"
     inkscape:groupmode="layer"
     id="layer1"
     transform="translate(-2231.1418,1103.9204)"><rect
       style="fill:#ffffff;stroke:none;stroke-width:63.4001;stroke-linecap:round;stroke-linejoin:round"
       id="rect3"
       width="1154.1836"
       height="256"
       x="2231.1418"
       y="-1103.9204" /><path
       id="path2"
       style="fill:#e80000;fill-opacity:1"
       d="m 2782.5364,-1103.9204 v 128.00003 128 h 602.789 v -256.00003 z m 111.3046,38.545 c 3.6341,-0.07 7.4444,-0.032 11.4434,0.1074 14.6463,0.5103 21.8298,1.714 31.6953,5.3144 14.083,5.1397 23.2632,14.0335 28.6582,27.7657 1.6321,4.154 4.5267,16.9069 3.9649,17.4687 -0.1655,0.1654 -10.0129,0.8606 -21.8828,1.5449 -11.8701,0.6843 -23.0822,1.3789 -24.9141,1.543 -3.2693,0.2928 -3.3409,0.2447 -3.8691,-2.5957 -1.6327,-8.7782 -7.451,-15.8381 -14.8692,-18.041 -4.8054,-1.4271 -14.8861,-1.6452 -19.3047,-0.418 -4.0719,1.1309 -7.7681,4.4333 -9.6015,8.5781 -1.808,4.0873 -1.3898,7.1525 1.4336,10.5078 2.6579,3.1588 7.9057,5.0674 25.5429,9.2852 17.7528,4.2454 26.3616,6.72976 35.1992,10.15625 25.2113,9.77482 37.4169,26.73795 36.1485,50.23828 -0.9825,18.20252 -10.5296,34.65499 -26.002,44.8125 -7.5911,4.98347 -15.8156,8.20011 -26.5742,10.39258 -8.1058,1.65185 -30.5668,2.75952 -38.7715,1.91211 -22.1033,-2.28291 -34.611,-6.17206 -44.0683,-13.70508 -7.8525,-6.25473 -15.572,-18.59983 -18.709,-29.91992 -1.5007,-5.41548 -3.0372,-15.88429 -2.334,-15.90039 0.1708,-0.004 11.2909,-0.7196 24.7109,-1.5918 13.42,-0.8722 24.6219,-1.58975 24.8946,-1.59375 0.2728,-0.004 0.9297,2.24219 1.4589,4.99219 2.5977,13.49995 10.3767,21.59667 23.0059,23.94531 10.769,2.00271 22.6589,-1.76285 27.7012,-8.77344 1.9735,-2.74392 2.5303,-4.42241 2.7812,-8.40039 0.288,-4.56468 0.093,-5.29769 -2.3652,-8.9707 -3.8575,-5.76282 -11.0187,-9.0885 -29.3438,-13.63086 -23.7344,-5.88321 -37.3865,-11.30544 -47.7949,-18.97852 -11.1055,-8.187 -17.1386,-20.10215 -17.1386,-33.84957 -10e-5,-13.5764 4.5765,-24.3655 14.4316,-34.0254 12.2441,-12.0016 29.0341,-17.6838 54.4726,-18.1699 z m -474.5039,2.2539 v 87.20113 87.19922 h 57.1465 57.1465 l 16.125,-19.80078 16.125,-19.79883 -46.0723,-0.20703 -46.0703,-0.20703 v -16.79297 -16.79297 l 29,-0.0156 29,-0.0156 12.4825,-17.78516 12.4824,-17.7832 -41.4824,-0.20703 -41.4825,-0.20703 v -13.59372 -13.5937 h 30.6895 30.6894 l 13.4414,-17.7989 c 7.3927,-9.7899 13.7872,-18.2508 14.209,-18.8007 0.6122,-0.7983 -13.7781,-1 -71.332,-1 z m 176,0 v 87.20113 87.19922 h 40.8321 c 42.8126,0 50.7496,-0.43719 64.8105,-3.56445 18.8691,-4.19667 32.1309,-13.65078 42.2813,-30.14454 8.8239,-14.3384 11.5657,-26.89342 11.5957,-53.09179 0.018,-15.95962 -0.1725,-18.49397 -2.0469,-27.19917 -4.0359,-18.7444 -9.305,-29.0567 -20.6563,-40.4317 -6.1944,-6.2074 -8.9673,-8.3267 -14.8496,-11.3515 -8.3329,-4.2851 -16.7649,-6.6704 -27.5664,-7.7969 -4.18,-0.436 -27.13,-0.7987 -51,-0.8067 z m -315.0976,0.166 -49.0977,0.2344 27.0254,17.4003 27.0235,17.3985 10.4746,0.027 c 13.3975,0.034 25.6987,1.1524 29.2715,2.6602 3.3368,1.4083 6.7726,4.8506 7.9492,7.9648 0.468,1.2387 0.8515,4.2275 0.8515,6.6407 0,7.4844 -4.086,13.2121 -10.7773,15.10541 -5.2544,1.48675 -25.0522,2.80274 -42.1543,2.80274 -7.4817,0 -13.4825,0.29287 -13.3359,0.65234 0.1467,0.35947 4.2264,7.91925 9.0664,16.79883 l 8.8007,16.14453 5.1993,0.01 c 6.578,0.0121 12.3171,2.52528 15.7246,6.88672 3.1366,4.0148 6.2134,9.4391 21.0566,37.10742 6.7273,12.53999 12.7321,23.60961 13.3438,24.59961 l 1.1132,1.80078 h 30.4473 c 16.7465,0 30.3282,-0.29575 30.1816,-0.65625 -0.1467,-0.3605 -6.4796,-12.69091 -14.0742,-27.40039 -18.067,-34.99284 -23.3444,-41.82555 -36.4297,-47.17383 l -4.6367,-1.89453 4.6367,-1.2793 c 18.091,-4.98443 31.1217,-17.96267 35.1289,-34.98828 1.5475,-6.5747 1.097,-22.524 -0.8046,-28.4453 -3.5802,-11.1483 -11.7756,-20.9612 -21.461,-25.6993 -12.6219,-6.1746 -22.9409,-6.9916 -84.5234,-6.6972 z m 912.6973,0.6113 25.3398,0.2109 25.3418,0.211 31.1641,47.4297 c 17.1396,26.08605 31.3221,47.26959 31.5175,47.07418 0.2862,-0.2862 2.5283,-78.81348 2.6133,-91.50388 l 0.023,-3.4004 h 25.2558 25.2539 l -0.4453,6.2012 c -0.245,3.41 -1.2434,42.2904 -2.2187,86.40035 l -1.7735,80.19922 -25.2363,-0.006 -25.2363,-0.006 -31.1993,-47.48242 c -17.1599,-26.1149 -31.3697,-47.33195 -31.5781,-47.14844 -0.3613,0.31824 -2.2476,69.2543 -2.3652,86.44336 l -0.057,8.19922 h -25.1777 -25.1758 l 0.416,-11.40039 c 0.6074,-16.67894 3.5372,-143.5836 3.5372,-153.211 z m -141.2911,0.023 h 29.3203 29.3204 l 30.3359,86.19926 30.3359,86.20117 -27.5332,0.20898 c -15.1433,0.11576 -27.6722,0.0719 -27.8418,-0.0976 -0.1696,-0.16956 -2.0109,-6.56277 -4.0918,-14.20899 l -3.7832,-13.90234 h -30.7851 -30.7852 l -4.248,13.19922 c -2.336,7.25999 -4.394,13.64922 -4.5742,14.19922 -0.2535,0.7739 -6.4619,1 -27.459,1 h -27.1328 l 20.1386,-50.59961 c 11.0764,-27.82997 26.5839,-66.71041 34.461,-86.40041 z m -402.7089,39.1993 h 10.291 c 11.2831,0 15.891,0.6442 22.5996,3.1543 8.8227,3.3009 13.5475,9.321 16.8926,21.52339 1.4508,5.29216 1.6839,8.4022 1.7109,22.92188 0.024,12.71817 -0.2845,18.18618 -1.2676,22.50195 -2.8407,12.47028 -8.8852,19.69539 -18.6582,22.30469 -2.9252,0.78101 -9.9484,1.45989 -18.168,1.75586 l -13.4003,0.48242 v -47.32227 z m 430.3535,5.6015 c -0.2456,0 -4.8803,13.5893 -10.3008,30.19924 -5.4205,16.60998 -10.0293,30.64922 -10.2403,31.19922 -0.3003,0.78295 3.8027,1 18.9024,1 10.6071,0 19.2975,-0.26961 19.3125,-0.59961 0.057,-1.27609 -17.2522,-61.79875 -17.6738,-61.79885 z" /></g></svg>
