<svg width="379" height="142" viewBox="0 0 379 142" fill="none" xmlns="http://www.w3.org/2000/svg">
<path d="M0 38.98V101.968H125.403V38.98H0ZM10.9834 55.3095H43.5016V85.6385H10.9834V55.3095ZM81.9014 55.3095H114.419V85.6385H81.9014V55.3095Z" fill="#34BFED"/>
<path d="M37.7539 60.6682H16.7266V80.2792H37.7539V60.6682Z" fill="#34BFED"/>
<path d="M108.676 60.6682H87.6484V80.2792H108.676V60.6682Z" fill="#34BFED"/>
<path d="M56.2008 14.9084V39.4685H51.4467V112.67H30.5039V141.993H94.8825V112.67H73.9397V39.4685H69.1856V14.9084H56.2008Z" fill="#34BFED"/>
<path d="M121.04 111.728H100.168V141.993H121.04V111.728Z" fill="#34BFED"/>
<path d="M25.22 111.728H4.34766V141.993H25.22V111.728Z" fill="#34BFED"/>
<path d="M43.2988 13.9519H11.7812V21.376H43.2988V13.9519Z" fill="#34BFED"/>
<path d="M115.924 13.9519H84.4062V21.376H115.924V13.9519Z" fill="#34BFED"/>
<path d="M214.317 40.2562H194.414V93H190.257V40.2562H170.563V36.099H214.317V40.2562ZM239.987 94.0393C237.181 94.0393 234.635 93.5716 232.348 92.6362C230.062 91.6662 228.087 90.2805 226.425 88.4791C224.796 86.643 223.532 84.4086 222.631 81.7757C221.73 79.1428 221.28 76.1462 221.28 72.7859C221.28 69.5294 221.713 66.6021 222.579 64.0039C223.445 61.371 224.675 59.1539 226.269 57.3525C227.862 55.5164 229.75 54.1133 231.933 53.1433C234.115 52.1733 236.54 51.6883 239.208 51.6883C241.945 51.6883 244.422 52.1733 246.639 53.1433C248.856 54.1133 250.744 55.5164 252.303 57.3525C253.862 59.1539 255.057 61.371 255.888 64.0039C256.72 66.6021 257.135 69.5468 257.135 72.8378V73.7732H225.437C225.645 76.51 226.147 78.883 226.944 80.8923C227.741 82.9016 228.78 84.5818 230.062 85.9328C231.344 87.2493 232.816 88.2366 234.479 88.8948C236.176 89.553 238.013 89.8821 239.987 89.8821C241.373 89.8821 242.759 89.7262 244.144 89.4145C245.53 89.068 246.777 88.5657 247.886 87.9075C249.029 87.2493 249.982 86.4352 250.744 85.4652C251.506 84.4952 251.956 83.3866 252.095 82.1395H256.2C255.819 84.0448 255.143 85.7423 254.173 87.232C253.203 88.687 252.008 89.9341 250.588 90.9734C249.168 91.978 247.557 92.7402 245.755 93.2598C243.954 93.7795 242.031 94.0393 239.987 94.0393ZM252.926 69.616C252.233 65.0085 250.657 61.5616 248.198 59.2751C245.773 56.9887 242.776 55.8455 239.208 55.8455C237.441 55.8455 235.795 56.1226 234.271 56.6769C232.747 57.2312 231.378 58.08 230.166 59.2232C228.988 60.3664 227.983 61.8041 227.152 63.5362C226.355 65.2684 225.784 67.295 225.437 69.616H252.926ZM293.978 75.2282C293.978 78.6578 293.666 81.5678 293.043 83.9582C292.419 86.3139 291.484 88.2539 290.237 89.7782C288.99 91.2679 287.431 92.3418 285.56 93C283.724 93.6929 281.559 94.0393 279.064 94.0393C276.882 94.0393 274.907 93.6929 273.14 93C271.374 92.2725 269.867 91.2505 268.62 89.9341C267.372 88.6177 266.42 87.0414 265.762 85.2053C265.103 83.3346 264.774 81.2387 264.774 78.9177L268.931 78.8657C269.105 82.6418 270.023 85.4305 271.685 87.232C273.383 88.9987 275.843 89.8821 279.064 89.8821C280.727 89.8821 282.217 89.7089 283.533 89.3625C284.884 88.9814 286.028 88.2712 286.963 87.232C287.898 86.1927 288.609 84.755 289.094 82.9189C289.579 81.0828 289.821 78.6752 289.821 75.6959V36.099H293.978V75.2282ZM315.076 93H310.919V36.099H315.076V93ZM352.49 94.0393C348.645 94.0393 345.284 93.6409 342.409 92.8441C339.534 92.0127 337.109 90.8521 335.134 89.3625C333.194 87.8382 331.704 86.0195 330.665 83.9062C329.626 81.7584 329.019 79.3507 328.846 76.6832H332.951C333.367 79.2468 334.147 81.3773 335.29 83.0748C336.433 84.7723 337.836 86.1234 339.499 87.128C341.196 88.1327 343.119 88.8429 345.267 89.2586C347.415 89.6743 349.701 89.8821 352.126 89.8821C354.655 89.8821 356.924 89.6223 358.934 89.1027C360.978 88.5484 362.71 87.7689 364.13 86.7643C365.585 85.725 366.694 84.4952 367.456 83.0748C368.218 81.6198 368.599 79.9916 368.599 78.1902C368.599 76.2848 368.27 74.6912 367.612 73.4094C366.953 72.093 365.845 70.9498 364.286 69.9798C362.727 69.0098 360.666 68.1437 358.102 67.3816C355.573 66.6194 352.421 65.84 348.645 65.0432C345.527 64.3503 342.842 63.5535 340.59 62.6528C338.373 61.7521 336.537 60.7128 335.082 59.535C333.627 58.3225 332.553 56.9541 331.86 55.4298C331.167 53.8708 330.821 52.0694 330.821 50.0255C330.821 47.8083 331.289 45.7817 332.224 43.9457C333.159 42.1096 334.476 40.5333 336.173 39.2169C337.905 37.9005 339.967 36.8785 342.357 36.151C344.782 35.4235 347.449 35.0597 350.359 35.0597C353.27 35.0597 355.937 35.4062 358.362 36.099C360.787 36.7572 362.9 37.7272 364.702 39.009C366.538 40.2908 368.01 41.8498 369.119 43.6858C370.262 45.5219 370.989 47.6005 371.301 49.9216H367.3C366.919 48.3973 366.295 46.9769 365.429 45.6605C364.563 44.344 363.437 43.2181 362.051 42.2828C360.7 41.3128 359.072 40.568 357.167 40.0483C355.296 39.494 353.148 39.2169 350.723 39.2169C345.631 39.2169 341.768 40.1523 339.135 42.023C336.537 43.8937 335.238 46.4573 335.238 49.7137C335.238 51.2033 335.48 52.5024 335.965 53.611C336.45 54.7196 337.264 55.7242 338.408 56.625C339.586 57.491 341.127 58.2705 343.033 58.9633C344.938 59.6216 347.311 60.2451 350.152 60.8341C351.815 61.1805 353.529 61.5442 355.296 61.9253C357.063 62.3064 358.778 62.7567 360.441 63.2764C362.138 63.796 363.749 64.4369 365.273 65.1991C366.798 65.9612 368.114 66.8966 369.223 68.0051C370.366 69.1137 371.266 70.4475 371.925 72.0064C372.618 73.5307 372.964 75.3494 372.964 77.4627C372.964 79.8877 372.444 82.1221 371.405 84.1661C370.4 86.1753 368.98 87.9248 367.144 89.4145C365.343 90.8695 363.177 92.0127 360.648 92.8441C358.154 93.6409 355.435 94.0393 352.49 94.0393Z" fill="#204067"/>
<path d="M148.995 35.0342H144.336V120.911H148.995V35.0342Z" fill="#204067"/>
</svg>
